name Walk3.mot
datacolumns 19
datarows 12
range 2.23600000 2.24700000
endheader

                time	   L_ground_force_vx	   L_ground_force_vy	   L_ground_force_vz	   L_ground_force_px	   L_ground_force_py	   L_ground_force_pz	   R_ground_force_vx	   R_ground_force_vy	   R_ground_force_vz	   R_ground_force_px	   R_ground_force_py	   R_ground_force_pz	   L_ground_torque_x	   L_ground_torque_y	   L_ground_torque_z	   R_ground_torque_x	   R_ground_torque_y	   R_ground_torque_z	
          2.23600000	          0.00000029	          0.00000097	         -0.00000003	         -0.00000000	          0.00000000	         -0.00000000	         48.31714976	        205.94903529	          6.34251247	          0.22165650	          0.00000000	          0.07422892	          0.00000000	          0.00000000	          0.00000000	          0.00000000	        -11.32981722	          0.00000000	
          2.23700000	          0.00000027	          0.00000093	         -0.00000003	         -0.00000000	          0.00000000	         -0.00000000	         46.21848742	        196.96067492	          6.42125354	          0.22044846	          0.00000000	          0.07372810	          0.00000000	          0.00000000	          0.00000000	          0.00000000	        -10.93290886	          0.00000000	
          2.23800000	          0.00000026	          0.00000089	         -0.00000003	         -0.00000000	          0.00000000	         -0.00000000	         44.13145525	        188.12735091	          6.47420545	          0.21911789	          0.00000000	          0.07319162	          0.00000000	          0.00000000	          0.00000000	          0.00000000	        -10.53440366	          0.00000000	
          2.23900000	          0.00000024	          0.00000085	         -0.00000003	         -0.00000000	          0.00000000	         -0.00000000	         42.06036549	        179.45726872	          6.50222650	          0.21765967	          0.00000000	          0.07261793	          0.00000000	          0.00000000	          0.00000000	          0.00000000	        -10.13516276	          0.00000000	
          2.24000000	          0.00000023	          0.00000081	         -0.00000003	         -0.00000000	          0.00000000	         -0.00000000	         40.00943237	        170.95820242	          6.50629058	          0.21606877	          0.00000000	          0.07200547	          0.00000000	          0.00000000	          0.00000000	          0.00000000	         -9.73604777	          0.00000000	
          2.24100000	          0.00000021	          0.00000077	         -0.00000003	         -0.00000000	          0.00000000	         -0.00000000	         37.98273970	        162.63745855	          6.48747623	          0.21434032	          0.00000000	          0.07135272	          0.00000000	          0.00000000	          0.00000000	          0.00000000	         -9.33791271	          0.00000000	
          2.24200000	          0.00000020	          0.00000073	         -0.00000002	         -0.00000000	          0.00000000	         -0.00000000	         35.98421285	        154.50183808	          6.44695446	          0.21246959	          0.00000000	          0.07065821	          0.00000000	          0.00000000	          0.00000000	          0.00000000	         -8.94159645	          0.00000000	
          2.24300000	          0.00000018	          0.00000069	         -0.00000002	         -0.00000000	          0.00000000	         -0.00000000	         34.01759542	        146.55759819	          6.38597600	          0.21045209	          0.00000000	          0.06992047	          0.00000000	          0.00000000	          0.00000000	          0.00000000	         -8.54791615	          0.00000000	
          2.24400000	          0.00000017	          0.00000066	         -0.00000002	         -0.00000000	          0.00000000	         -0.00000000	         32.08643046	        138.81041647	          6.30585870	          0.20828360	          0.00000000	          0.06913811	          0.00000000	          0.00000000	          0.00000000	          0.00000000	         -8.15766208	          0.00000000	
          2.24500000	          0.00000016	          0.00000062	         -0.00000002	         -0.00000000	          0.00000000	         -0.00000000	         30.19404618	        131.26535992	          6.20797501	          0.20596021	          0.00000000	          0.06830982	          0.00000000	          0.00000000	          0.00000000	          0.00000000	         -7.77159373	          0.00000000	
          2.24600000	          0.00000014	          0.00000058	         -0.00000002	         -0.00000000	          0.00000000	         -0.00000000	         28.34354557	        123.92686077	          6.09374005	          0.20347840	          0.00000000	          0.06743433	          0.00000000	          0.00000000	          0.00000000	          0.00000000	         -7.39043695	          0.00000000	
          2.24700000	          0.00000013	          0.00000055	         -0.00000002	         -0.00000000	          0.00000000	         -0.00000000	         26.53779969	        116.79870040	          5.96459995	          0.20083512	          0.00000000	          0.06651052	          0.00000000	          0.00000000	          0.00000000	          0.00000000	         -7.01488201	          0.00000000	
